<svg width="68" height="68" viewBox="0 0 68 68" fill="none" xmlns="http://www.w3.org/2000/svg">
<g opacity="0.21" filter="url(#filter0_d_0_11428)">
<path fill-rule="evenodd" clip-rule="evenodd" d="M4 30V37C4 49.7025 14.2975 60 27 60H34H41C53.7025 60 64 49.7025 64 37V30V23C64 10.2975 53.7025 0 41 0H34H27C14.2975 0 4 10.2975 4 23V30Z" fill="#FEC53D"/>
</g>
<path fill-rule="evenodd" clip-rule="evenodd" d="M19 24.3165L31.9005 31.7646C32.0394 31.8448 32.1851 31.9027 32.3333 31.9395V46.3847L19.9201 39.0385C19.3498 38.701 19 38.0876 19 37.4249V24.3165ZM49 24.1185V37.4249C49 38.0876 48.6502 38.701 48.0799 39.0385L35.6667 46.3847V31.8129C35.6969 31.7978 35.7269 31.7817 35.7566 31.7646L49 24.1185Z" fill="#FEC53D"/>
<path opacity="0.499209" fill-rule="evenodd" clip-rule="evenodd" d="M19.4052 20.7014C19.5628 20.5024 19.7617 20.3343 19.9936 20.2108L33.1186 13.2201C33.6695 12.9266 34.3304 12.9266 34.8814 13.2201L48.0064 20.2108C48.1852 20.306 48.3443 20.4277 48.48 20.5697L34.0899 28.8778C33.9953 28.9325 33.908 28.995 33.8285 29.064C33.749 28.995 33.6618 28.9325 33.5671 28.8778L19.4052 20.7014Z" fill="#FEC53D"/>
<defs>
<filter id="filter0_d_0_11428" x="0" y="0" width="68" height="68" filterUnits="userSpaceOnUse" color-interpolation-filters="sRGB">
<feFlood flood-opacity="0" result="BackgroundImageFix"/>
<feColorMatrix in="SourceAlpha" type="matrix" values="0 0 0 0 0 0 0 0 0 0 0 0 0 0 0 0 0 0 127 0" result="hardAlpha"/>
<feOffset dy="4"/>
<feGaussianBlur stdDeviation="2"/>
<feComposite in2="hardAlpha" operator="out"/>
<feColorMatrix type="matrix" values="0 0 0 0 0 0 0 0 0 0 0 0 0 0 0 0 0 0 0.25 0"/>
<feBlend mode="normal" in2="BackgroundImageFix" result="effect1_dropShadow_0_11428"/>
<feBlend mode="normal" in="SourceGraphic" in2="effect1_dropShadow_0_11428" result="shape"/>
</filter>
</defs>
</svg>
